<?xml version="1.0" encoding="UTF-8"?>
<svg version="1.1" xmlns="http://www.w3.org/2000/svg" width="103" height="210">
<path d="M0 0 C33.99 0 67.98 0 103 0 C103 69.3 103 138.6 103 210 C69.01 210 35.02 210 0 210 C0 140.7 0 71.4 0 0 Z " fill="#FEFEFE" transform="translate(0,0)"/>
<path d="M0 0 C2.76276177 0.52268466 5.3260876 1.10869587 8 2 C8.01417969 2.68707031 8.02835937 3.37414062 8.04296875 4.08203125 C8.18718242 6.80650031 8.3895243 9.33884184 9 12 C11.40743101 14.06454002 11.40743101 14.06454002 14 15 C14 15.66 14 16.32 14 17 C15.051875 16.7525 16.10375 16.505 17.1875 16.25 C21 16 21 16 23.9375 17.9375 C24.618125 18.618125 25.29875 19.29875 26 20 C26 17.69 26 15.38 26 13 C26.33 13 26.66 13 27 13 C27.495 17.95 27.495 17.95 28 23 C27.12472656 23.25910156 26.24945313 23.51820312 25.34765625 23.78515625 C22.01109385 24.99597411 19.43768051 26.56395195 16.4375 28.4375 C12.52196336 30.48570206 10.83361523 31.18740187 6.47265625 30.20703125 C3 28.75 3 28.75 -0.1875 27.109375 C-2.89225891 25.68040222 -2.89225891 25.68040222 -5.203125 26.8203125 C-5.79609375 27.20960937 -6.3890625 27.59890625 -7 28 C-9.75 28.125 -9.75 28.125 -12 28 C-11.505 29.485 -11.505 29.485 -11 31 C-10.21625 30.9175 -9.4325 30.835 -8.625 30.75 C0.36172069 31.36977384 6.76020981 35.79506898 13 42 C12.45276317 45.37462715 11.9451 47.08235 10 50 C10 51.32 10 52.64 10 54 C4.874491 55.708503 -0.34407882 55.28550365 -5.625 54.375 C-9.81108407 53.90987955 -12.1633527 54.2237744 -16 56 C-18.02022188 58.49856157 -19.55473209 61.13610506 -21 64 C-21.99 63.67 -22.98 63.34 -24 63 C-23.39174965 58.65535464 -22.73832608 54.32448133 -22 50 C-27.04623335 52.57072265 -29.11186617 54.10272959 -32 59 C-37.06896552 62 -37.06896552 62 -40 62 C-40.03351562 62.61617187 -40.06703125 63.23234375 -40.1015625 63.8671875 C-41 66 -41 66 -43.8359375 67.1953125 C-45.00382812 67.50210938 -46.17171875 67.80890625 -47.375 68.125 C-51.12205916 69.13030855 -53.75824477 69.83882985 -57 72 C-57.33 72.99 -57.66 73.98 -58 75 C-58.99 75 -59.98 75 -61 75 C-60.67 78.3 -60.34 81.6 -60 85 C-65.75 84.125 -65.75 84.125 -68 83 C-67.95875 81.9275 -67.9175 80.855 -67.875 79.75 C-67.9885825 76.34252515 -68.21273364 74.79260369 -70 72 C-67 70 -67 70 -64 70 C-64 69.01 -64 68.02 -64 67 C-63.38125 66.9175 -62.7625 66.835 -62.125 66.75 C-59.83849644 66.21964484 -59.83849644 66.21964484 -59.0625 64.125 C-57.62659811 61.25319621 -55.82582909 60.41291454 -53 59 C-52.34 59 -51.68 59 -51 59 C-51 58.34 -51 57.68 -51 57 C-50.34 57 -49.68 57 -49 57 C-48.896875 56.401875 -48.79375 55.80375 -48.6875 55.1875 C-47.90175967 52.68741714 -47.03081147 51.62464918 -45 50 C-44.34 50 -43.68 50 -43 50 C-42.67 49.01 -42.34 48.02 -42 47 C-40.12382302 45.15500602 -38.07262391 43.6316401 -36 42 C-36.495 41.2575 -36.99 40.515 -37.5 39.75 C-39 37 -39 37 -39 33 C-49.56 32.67 -60.12 32.34 -71 32 C-70.505 30.515 -70.505 30.515 -70 29 C-68.65252686 28.970271 -68.65252686 28.970271 -67.27783203 28.93994141 C-63.94909922 28.86190739 -60.62082744 28.77521886 -57.29248047 28.68261719 C-55.8511626 28.64430326 -54.40974832 28.60945457 -52.96826172 28.578125 C-50.89776114 28.53252554 -48.82792567 28.47452556 -46.7578125 28.4140625 C-45.5114502 28.3826416 -44.26508789 28.3512207 -42.98095703 28.31884766 C-39.88458224 28.30317691 -39.88458224 28.30317691 -38 26 C-39.65 25.34 -41.3 24.68 -43 24 C-43 23.01 -43 22.02 -43 21 C-40.69 21 -38.38 21 -36 21 C-36.5775 20.30132812 -37.155 19.60265625 -37.75 18.8828125 C-38.4925 17.97273438 -39.235 17.06265625 -40 16.125 C-40.7425 15.22007813 -41.485 14.31515625 -42.25 13.3828125 C-44 11 -44 11 -44 9 C-41.34795104 9.36834013 -40.26159944 9.6867691 -38.515625 11.77734375 C-38.09796875 12.49019531 -37.6803125 13.20304687 -37.25 13.9375 C-36.82203125 14.64777344 -36.3940625 15.35804687 -35.953125 16.08984375 C-35 18 -35 18 -35 20 C-32.525 20.99 -32.525 20.99 -30 22 C-29.505 20.515 -29.505 20.515 -29 19 C-27.02 19.33 -25.04 19.66 -23 20 C-23 19.34 -23 18.68 -23 18 C-23.99 17.67 -24.98 17.34 -26 17 C-25.34 16.01 -24.68 15.02 -24 14 C-24.99 13.01 -25.98 12.02 -27 11 C-23.535 9.515 -23.535 9.515 -20 8 C-27.98079085 6.35266241 -35.86894139 5.49122453 -44 5 C-43.67 4.34 -43.34 3.68 -43 3 C-35.99491877 1.67072254 -30.17346814 2.35570749 -23.25 3.8125 C-22.33089844 3.99103516 -21.41179688 4.16957031 -20.46484375 4.35351562 C-16.12628043 5.22311189 -12.03753712 6.12542919 -8 8 C-8 6.02 -8 4.04 -8 2 C-4.71023192 0.90341064 -3.28696233 1.20046862 0 2 C0 1.34 0 0.68 0 0 Z " fill="#090909" transform="translate(73,71)"/>
<path d="M0 0 C2.76276177 0.52268466 5.3260876 1.10869587 8 2 C8.01417969 2.68707031 8.02835938 3.37414062 8.04296875 4.08203125 C8.18718242 6.80650031 8.3895243 9.33884184 9 12 C11.40743101 14.06454002 11.40743101 14.06454002 14 15 C14 15.66 14 16.32 14 17 C13.360625 17.12375 12.72125 17.2475 12.0625 17.375 C11.381875 17.58125 10.70125 17.7875 10 18 C9.67 18.66 9.34 19.32 9 20 C8.67 18.68 8.34 17.36 8 16 C7.484375 16.20625 6.96875 16.4125 6.4375 16.625 C2.96734329 17.15887026 0.29364209 16.07676761 -3 15 C-4.35384615 8.6 -4.35384615 8.6 -2.5625 5.5625 C-2.046875 5.046875 -1.53125 4.53125 -1 4 C-2.65 3.67 -4.3 3.34 -6 3 C-6 4.98 -6 6.96 -6 9 C-6.66 9 -7.32 9 -8 9 C-8 6.69 -8 4.38 -8 2 C-4.71023192 0.90341064 -3.28696233 1.20046862 0 2 C0 1.34 0 0.68 0 0 Z " fill="#1E0B0B" transform="translate(73,71)"/>
<path d="M0 0 C1.010625 0.474375 2.02125 0.94875 3.0625 1.4375 C6.65922205 2.9936328 10.09268709 3.6012946 14 4 C12.02 4.99 12.02 4.99 10 6 C10.66 6.66 11.32 7.32 12 8 C10.824375 8.185625 10.824375 8.185625 9.625 8.375 C6.85942178 8.79117993 6.85942178 8.79117993 5 11 C2.5 10 2.5 10 0 8 C-0.46837899 5.20625708 -0.23424505 2.85778964 0 0 Z " fill="#B7A4A4" transform="translate(81,75)"/>
<path d="M0 0 C-0.66 0.66 -1.32 1.32 -2 2 C-5.37259316 1.7858671 -8.6487608 1.41746865 -12 1 C-15.37381369 0.63440334 -18.74949771 0.28711119 -22.125 -0.0625 C-23.81514901 -0.24046007 -25.50525658 -0.41881435 -27.1953125 -0.59765625 C-28.45085938 -0.73042969 -29.70640625 -0.86320312 -31 -1 C-27.36332201 -8.27335598 -6.73784326 -1.34418705 0 0 Z " fill="#1B1B1B" transform="translate(60,77)"/>
<path d="M0 0 C7.176781 -0.35883905 7.176781 -0.35883905 10.4375 1.0625 C12.692054 3.85814696 12.73499386 6.48866866 13 10 C11 8.625 11 8.625 9 7 C9 6.34 9 5.68 9 5 C8.071875 5.185625 7.14375 5.37125 6.1875 5.5625 C3 6 3 6 0 5 C0 3.35 0 1.7 0 0 Z " fill="#EFEEEE" transform="translate(87,83)"/>
<path d="M0 0 C2.76276177 0.52268466 5.3260876 1.10869587 8 2 C8 2.99 8 3.98 8 5 C5.36 5 2.72 5 0 5 C0 5.99 0 6.98 0 8 C-0.99 8 -1.98 8 -3 8 C-2.34 6.68 -1.68 5.36 -1 4 C-2.65 3.67 -4.3 3.34 -6 3 C-6 4.98 -6 6.96 -6 9 C-6.66 9 -7.32 9 -8 9 C-8 6.69 -8 4.38 -8 2 C-4.71023192 0.90341064 -3.28696233 1.20046862 0 2 C0 1.34 0 0.68 0 0 Z " fill="#2F1A19" transform="translate(73,71)"/>
<path d="M0 0 C2.64 0 5.28 0 8 0 C8.38218767 1.65614657 8.71395102 3.32457024 9 5 C8 6 8 6 4.625 6.25 C1 6 1 6 -0.9375 4.5 C-1.4634375 3.7575 -1.4634375 3.7575 -2 3 C-1.34 3 -0.68 3 0 3 C0 2.01 0 1.02 0 0 Z " fill="#5B0603" transform="translate(73,76)"/>
<path d="M0 0 C0.680625 0.309375 1.36125 0.61875 2.0625 0.9375 C5.07687845 2.14565864 5.07687845 2.14565864 8.75 2.5 C9.8225 2.665 10.895 2.83 12 3 C12.33 3.66 12.66 4.32 13 5 C8.07872966 5.16682272 4.49656104 5.24828052 0 3 C0 2.01 0 1.02 0 0 Z " fill="#3C0808" transform="translate(69,79)"/>
<path d="M0 0 C2.70438996 0.36405249 3.74406383 0.68142682 5.484375 2.84765625 C5.90203125 3.57855469 6.3196875 4.30945313 6.75 5.0625 C7.39195313 6.16271484 7.39195313 6.16271484 8.046875 7.28515625 C8.36140625 7.85105469 8.6759375 8.41695312 9 9 C8.34 9.66 7.68 10.32 7 11 C5.82750647 9.54634731 4.66216184 8.08692581 3.5 6.625 C2.52546875 5.40683594 2.52546875 5.40683594 1.53125 4.1640625 C0 2 0 2 0 0 Z " fill="#121212" transform="translate(29,80)"/>
<path d="M0 0 C1.32 0.33 2.64 0.66 4 1 C5.10844919 4.32534757 4.84454356 6.62182575 4 10 C2.68 9.34 1.36 8.68 0 8 C0 5.36 0 2.72 0 0 Z " fill="#F4B7B6" transform="translate(81,75)"/>
<path d="M0 0 C0.66 0.33 1.32 0.66 2 1 C2 1.66 2 2.32 2 3 C0.02 3 -1.96 3 -4 3 C-4.33 3.66 -4.66 4.32 -5 5 C-5.99 4.67 -6.98 4.34 -8 4 C-8 3.01 -8 2.02 -8 1 C-5.26094655 -0.36952673 -3.02912668 -0.12621361 0 0 Z " fill="#B7B7B7" transform="translate(48,88)"/>
<path d="M0 0 C2.64 0 5.28 0 8 0 C5.75 2.5 5.75 2.5 3 5 C1.68 5 0.36 5 -1 5 C-0.67 3.35 -0.34 1.7 0 0 Z " fill="#110202" transform="translate(67,74)"/>
<path d="M0 0 C1.98 0 3.96 0 6 0 C5.67 1.32 5.34 2.64 5 4 C3.35 3.67 1.7 3.34 0 3 C0 2.01 0 1.02 0 0 Z " fill="#C4260A" transform="translate(76,78)"/>
<path d="M0 0 C6.75 0.875 6.75 0.875 9 2 C9 2.66 9 3.32 9 4 C8.01 4.33 7.02 4.66 6 5 C6 4.34 6 3.68 6 3 C4.02 2.34 2.04 1.68 0 1 C0 0.67 0 0.34 0 0 Z " fill="#FBE7E6" transform="translate(81,74)"/>
<path d="M0 0 C-0.99 0.33 -1.98 0.66 -3 1 C-3 1.66 -3 2.32 -3 3 C-5.31 3 -7.62 3 -10 3 C-8.0130571 -0.97388579 -3.91761109 -0.08705802 0 0 Z " fill="#535353" transform="translate(39,73)"/>
<path d="M0 0 C2.97 0.33 5.94 0.66 9 1 C7 3 7 3 4.5 3.3125 C3.2625 3.1578125 3.2625 3.1578125 2 3 C1.34 2.01 0.68 1.02 0 0 Z " fill="#343434" transform="translate(51,76)"/>
</svg>
