<svg width="206" height="420" viewBox="0 0 103 210" fill="none" xmlns="http://www.w3.org/2000/svg">
<path d="M57.2761 78.1359C57.4444 78.1306 57.6127 78.1253 58.0303 78.1864C58.2797 78.2527 58.3797 78.1832 58.3797 78.1832C58.3797 78.1832 58.6603 78.186 59.1732 78.387C59.9526 78.6576 60.2193 78.7272 60.4859 78.7969C61.1092 78.8879 61.7325 78.979 62.5339 79.4078C61.6459 80.9453 60.58 82.145 59.5141 83.3447C59.5931 83.7622 59.6721 84.1797 59.7511 84.5973C62.2107 84.3608 64.6704 84.1243 67.4224 84.0549C70.1374 85.4682 72.56 86.7144 75.2048 88.218C80.6281 91.9882 85.8291 95.501 91.0302 99.0139C86.8929 102.13 82.6586 103.334 77.9569 100.049C72.6747 96.3592 67.6025 99.4066 61.0896 100.991C62.927 102.311 64.0148 103.763 65.0059 103.7C73.9866 103.127 80.039 108.535 86.0261 113.881C88.3239 115.933 85.9941 120.165 81.3803 122.645C82.5553 122.964 83.6132 123.251 85.6291 123.798C81.3413 127.239 77.099 127.03 72.9154 126.712C70.478 126.528 68.0133 125.375 65.6648 125.626C60.9948 126.127 56.503 127.327 54.9212 132.847C54.5674 134.082 53.1739 135.018 52.1016 136.277C46.8184 131.679 54.6277 126.858 50.2401 121.776C47.8713 124.042 45.5444 126.314 43.1622 128.526C41.8772 129.72 40.5044 130.82 39.1589 131.947C37.3747 133.442 35.6404 135.008 33.7622 136.375C32.7651 137.1 31.5534 137.781 30.363 137.95C23.5709 138.916 17.7687 141.983 13.9079 147.451C12.41 149.572 13.242 153.338 12.9595 157.055C10.0522 155.333 4.37877 156.797 6.71865 149.715C7.12498 148.485 5.38277 146.546 4.77526 145.24C16.1673 134.778 27.5221 124.35 38.6326 114.146C37.6631 110.613 31.3628 108.298 38.1031 104.213C41.0001 103.98 43.3267 104.222 45.6586 104.293C47.107 104.337 48.5634 104.12 50.3891 104.032C52.6688 104.043 54.5758 104.043 56.6107 104.043C56.6107 101.733 56.6107 99.8845 56.6107 96.8168C52.9528 98.4061 49.9737 99.7005 46.6161 100.971C43.8677 99.9785 41.4978 99.0093 39.1279 98.04C37.5801 97.6899 35.9753 97.4929 34.5017 96.9438C33.1882 96.4544 32.0199 95.5755 30.7875 94.8685C30.9873 94.429 31.187 93.9895 31.3868 93.5499C33.3448 93.4411 35.3028 93.3323 38.4187 93.1591C35.2981 88.9116 32.7391 85.4285 30.1801 81.9453C37.3247 82.9334 36.8867 91.7428 43.6971 94.0685C45.7845 91.6821 48.0403 89.1032 51.1118 85.5919C49.803 85.1784 48.4861 84.7623 47.1693 84.3461C47.4231 83.9112 47.6769 83.4762 47.9307 83.0413C49.7569 82.3694 51.5831 81.6975 54.0895 80.8658C55.6052 79.8493 56.4406 78.9926 57.2761 78.1359ZM56.5094 107.555C56.2373 107.779 55.9652 108.004 55.693 108.229C55.9025 108.398 56.1119 108.568 56.3214 108.738C56.4549 108.403 56.5884 108.068 56.5094 107.555Z" fill="#050404"/>
<path d="M74.9826 87.9607C72.56 86.7144 70.1374 85.4682 67.3265 83.7481C66.2857 82.1752 65.6331 81.0761 64.9805 79.9771C67.305 77.5166 67.6973 73.775 72.7539 73.2053C76.2762 72.8084 78.8278 73.3897 81.8904 75.0974C82.0525 76.1023 82.0389 76.5372 81.6184 77.0131C78.6094 77.5231 74.7314 76.8176 74.9705 80.6583C75.0498 81.9306 79.1316 82.9814 81.4171 84.0625C81.8188 84.2525 82.387 84.0904 83.1161 84.3173C84.546 85.0384 85.7382 85.5332 86.9304 86.028C86.9304 86.028 87.008 86.4577 86.7209 86.7636C82.6168 87.3665 78.7997 87.6636 74.9826 87.9607Z" fill="black"/>
<path d="M50.0163 104.02C48.5634 104.12 47.107 104.337 45.6586 104.293C43.3267 104.222 41.0001 103.979 38.3098 103.918C26.5234 104.028 15.0985 104.028 3.67354 104.028C3.53588 103.538 3.39823 103.048 3.26057 102.558C4.65554 102.042 6.03404 101.141 7.4485 101.081C11.9201 100.889 16.4055 100.974 20.8849 101.023C26.8911 101.088 32.9662 101.625 38.7326 98.0314C41.4978 99.0093 43.8677 99.9785 46.7638 101.247C48.1987 102.371 49.1075 103.196 50.0163 104.02Z" fill="black"/>
<path d="M98.8079 94.1421C98.8616 94.238 98.9154 94.3343 98.9695 94.4306C98.4494 94.4088 97.8885 94.3753 97.264 94.324C96.0921 93.9343 95.1631 93.8332 94.4167 93.9923C93.6327 94.1595 93.1067 94.6015 92.7444 95.1614C92.3958 95.7002 92.1966 96.3516 92.036 96.9554C91.9956 97.1074 91.9576 97.2558 91.9206 97.4007C91.8279 97.7636 91.7409 98.1041 91.6347 98.4214C91.5678 98.4352 91.4883 98.4503 91.3881 98.4673C86.3525 95.2391 81.5253 91.9891 76.532 88.5304C79.0886 88.1803 81.761 87.9375 84.5918 87.6803C85.2906 87.6168 85.9992 87.5524 86.718 87.4853C89.0406 87.913 91.0727 88.3477 93.0415 88.9628L93.1906 88.4856L93.0415 88.9628C93.1945 89.0106 93.3479 89.0573 93.501 89.1038C94.0092 89.2583 94.5139 89.4116 94.99 89.6038C95.6077 89.8531 96.1088 90.1428 96.4386 90.5174L96.8139 90.187L96.4386 90.5174C97.0965 91.2645 97.6475 92.1205 98.1772 93.03C98.3856 93.3877 98.5955 93.7627 98.8079 94.1421Z" fill="#0D0808" stroke="black"/>
<path d="M92.5 94.5C90.9 95.3 87.8333 96.8333 86.5 97.5" stroke="black"/>
<path d="M56.9925 77.9299C56.4406 78.9926 55.6052 79.8493 54.4496 80.8619C49.5589 79.7005 45.0328 78.1859 40.4007 77.1412C37.7108 76.5346 34.8506 76.6827 32.1114 75.8289C40.5084 73.1798 48.5695 76.1127 56.9925 77.9299Z" fill="#1F1011"/>
<path d="M82.0253 76.9722C82.0389 76.5372 82.0525 76.1023 82.1091 75.344C84.5607 75.8877 86.9693 76.7547 89.6681 78.1843C89.98 79.4974 90.0018 80.248 90.0236 80.9986C89.0691 82.5175 88.1147 84.0364 87.0454 85.7916C85.7382 85.5332 84.546 85.0384 83.1851 83.9741C82.686 81.2604 82.3556 79.1163 82.0253 76.9722Z" fill="#050404"/>
<path d="M64.7289 79.8664C65.6331 81.0761 66.2857 82.1752 67.0341 83.581C64.6704 84.1243 62.2107 84.3608 59.7511 84.5973C59.6721 84.1798 59.5931 83.7622 59.5141 83.3447C60.58 82.145 61.6459 80.9453 62.8426 79.4708C63.4747 79.3826 63.976 79.5691 64.7289 79.8664Z" fill="#0B0808"/>
<path d="M92.3254 98.7671C92.8497 96.684 92.5296 93.2495 96.8058 94.8301C95.5431 96.2274 94.0904 97.4577 92.3254 98.7671Z" fill="#050404"/>
<path d="M90.2376 80.9233C90.0018 80.248 89.98 79.4974 89.9554 78.3712C90.1189 78.9463 90.2853 79.8971 90.2376 80.9233Z" fill="#901C27"/>
<path d="M99.9537 87.9873C99.9564 87.9626 99.951 88.012 99.9537 87.9873Z" fill="#901C27"/>
<path d="M97.4946 86.4946C97.501 86.5164 97.4883 86.4729 97.4946 86.4946Z" fill="#901C27"/>
<path d="M58.3556 78.1586C58.3797 78.1832 58.2797 78.2527 58.281 78.2174C58.2822 78.1821 58.3315 78.134 58.3556 78.1586Z" fill="#1F1011"/>
<path d="M60.3383 78.618C60.2193 78.7272 59.9527 78.6576 59.2903 78.4643C59.3266 78.3734 59.7587 78.4063 60.3383 78.618Z" fill="#1F1011"/>
<path d="M50.3891 104.032C49.1075 103.196 48.1987 102.371 47.1423 101.271C49.9737 99.7005 52.9528 98.4061 56.6107 96.8168C56.6107 99.8845 56.6107 101.733 56.6107 104.043C54.5758 104.043 52.6688 104.043 50.3891 104.032Z" fill="#0A0909"/>
<path d="M56.6157 107.644C56.5884 108.068 56.4549 108.403 56.3214 108.738C56.1119 108.568 55.9025 108.398 55.693 108.229C55.9652 108.004 56.2373 107.779 56.6157 107.644Z" fill="#0A0909"/>
<path d="M81.6183 77.0131C82.3556 79.1163 82.686 81.2604 82.9473 83.7478C82.387 84.0904 81.8188 84.2525 81.4171 84.0625C79.1316 82.9814 75.0498 81.9306 74.9705 80.6583C74.7314 76.8176 78.6094 77.5231 81.6183 77.0131Z" fill="#6E0905"/>
<path d="M86.4165 95.8619C85.6627 95.8619 85.2642 95.5202 84.7741 94.9187C84.5219 94.6092 84.3551 93.9754 83.9854 93.8047C83.6742 93.6611 83.3274 93.4394 83.0828 93.1949C82.6648 92.7768 82.3498 92.642 81.7331 92.642C81.4377 92.642 81.0207 92.0554 80.7736 91.8533C80.4323 91.574 79.8447 91.9019 79.4646 91.6907C79.0937 91.4847 78.7748 90.7394 78.4319 90.7394C78.121 90.7394 78.151 90.6131 77.9278 90.4792C77.8113 90.4092 78.7472 90.8847 78.8954 90.967C80.3687 91.7855 81.9541 92.0266 83.278 93.1299C84.5978 94.2297 85.5136 95.3997 87.067 96.2196C87.305 96.3452 87.8909 96.5841 88.0265 96.8213C88.1077 96.9634 88.1672 97.2125 88.3192 97.2929C88.5017 97.3895 89.2747 97.1936 89.3356 97.4068C89.5195 98.0505 90.3214 98.3581 90.8804 97.9109C91.1007 97.7347 91.1508 97.1791 91.4659 97.1791C91.8813 97.1791 91.8318 96.7495 91.8318 96.4473" stroke="black" stroke-width="3"/>
<path d="M92.8563 94.8373C91.8364 94.8373 91.2822 96.4473 90.2218 96.4473" stroke="black" stroke-width="3"/>
<path d="M92.2708 94.3983C92.2708 94.6785 91.8232 95.7193 92.5636 95.3902C93.0942 95.1544 93.9833 95.1739 94.393 94.7642C94.7285 94.4287 94.7013 93.8128 95.2712 93.8128C95.4815 93.8128 95.6371 93.6573 95.6371 93.4469C95.6371 93.1593 95.9637 93.1596 96.0761 92.9347" stroke="black" stroke-width="3"/>
<path d="M58.1695 81.0797C58.8914 81.6704 59.7862 81.9151 60.6251 82.2506C61.812 82.7254 62.7263 83.6364 63.9588 84.0801C64.6034 84.3121 65.1912 84.2996 65.8614 84.2996C66.5277 84.2996 67.1669 84.4828 67.8291 84.446C68.2461 84.4228 68.2459 83.1899 67.9755 83.0149C67.5233 82.7223 66.7165 83.2796 67.1949 83.8036C67.8241 84.4927 68.5928 84.966 69.4228 85.381C69.8994 85.6193 70.6636 86.1432 71.1954 86.2023C72.1382 86.307 73.0359 86.9928 74.0412 87.0885C75.2929 87.2077 76.5854 88.3976 77.7815 88.3976C79.3938 88.3976 81.4016 88.7449 82.6844 87.7471C83.0103 87.4937 83.2351 87.3355 83.5626 87.1536C83.9849 86.919 84.6847 87.0609 85.0668 86.7552C85.2513 86.6076 85.938 86.495 86.1889 86.495C86.381 86.495 87.2255 86.3486 86.7093 86.3486" stroke="black" stroke-width="3"/>
<path d="M85.392 85.4705C85.4708 86.3372 86.2205 86.9121 86.4897 87.6658C86.7254 88.3257 86.7093 88.5992 86.7093 87.7309C86.7093 87.1067 86.4625 86.6032 86.1889 86.0559C85.6996 85.0774 84.9135 86.0384 84.2212 85.7307C83.8264 85.5552 83.7033 85.224 83.343 85.0639C82.9963 84.9098 82.9283 84.6045 82.6113 84.446" stroke="black" stroke-width="3"/>
<path d="M81.8795 76.2499C81.8795 76.792 82.2753 76.7488 82.4649 77.1281" stroke="black" stroke-width="3"/>
<path d="M82.0258 76.9818C82.0258 77.677 82.5074 78.2045 82.6194 78.8763C82.7132 79.4394 82.7576 79.9949 82.7576 80.6082C82.7576 82.0998 83.6358 83.5374 83.6358 85.0314" stroke="black" stroke-width="3"/>
<path d="M55.6815 107.424C55.6235 107.359 55.4827 106.927 55.4213 107.05C55.26 107.373 55.5408 107.366 55.6489 107.57C55.7593 107.779 56.5596 108.468 56.5596 107.863" stroke="black"/>
<path d="M55.6815 108.449C56.3149 108.449 56.6754 108.711 57.1125 109.148C57.1973 109.233 57.7684 109.987 57.6898 109.489C57.5241 108.44 57.1666 107.161 56.5434 106.286C56.2078 105.815 56.2669 107.652 56.2669 107.847C56.2669 108.494 56.0986 107.958 55.8847 107.611C55.6825 107.283 54.9936 106.372 55.1204 105.928C55.1206 105.928 55.996 107.349 56.0555 107.473C56.0669 107.496 56.6884 108.849 56.771 108.66C57.0654 107.987 56.7319 106.832 56.5921 106.156C56.4685 105.557 56.3029 105.087 56.2344 105.993C56.1728 106.807 56.1205 107.624 56.1205 108.44C56.1205 109.358 56.2336 106.609 56.2588 105.692C56.2825 104.827 56.0386 104.456 55.2424 104.058" stroke="black"/>
<path d="M52.7543 103.472C52.619 103.487 52.5278 103.561 52.4047 103.611C52.3132 103.647 52.5125 103.445 52.5592 103.359C52.8988 102.728 53.0936 102.035 53.2584 101.342C53.6249 99.8006 53.8409 98.2247 54.0715 96.6587C54.3108 95.0344 54.5089 97.0026 54.6244 97.6019C54.8889 98.9734 55.0524 100.372 55.3725 101.732C55.4047 101.869 55.5405 101.496 55.5676 101.358C55.7027 100.672 55.7889 99.9774 55.8847 99.285C55.983 98.5751 55.9717 98.9793 55.9742 99.3907C55.9802 100.377 55.9742 101.364 55.9742 102.35C55.9742 102.72 55.9628 105.179 55.7465 103.35C55.5265 101.49 55.4176 99.6155 55.2749 97.7482C55.1501 96.1137 55.0962 100.035 55.096 100.09C55.0913 101.749 55.096 106.725 55.096 105.066C55.096 103.824 55.1064 102.582 55.031 101.342C54.9414 99.8683 54.763 98.4112 54.4537 96.9677C54.3179 96.334 54.4179 97.01 54.4293 97.0978C54.5496 98.025 54.6851 98.9499 54.7952 99.8785C54.9397 101.097 55.096 102.332 55.096 103.562C55.096 104.505 55.2689 101.683 55.2912 100.74C55.3164 99.6727 55.3741 98.3538 55.0635 97.3092C54.6865 96.0409 54.7217 99.9381 54.6895 101.261C54.6574 102.58 54.657 103.901 54.657 105.221C54.657 105.402 54.657 105.584 54.657 105.765C54.657 106.091 54.6602 105.115 54.657 104.79C54.6391 103.019 54.6226 101.234 54.4293 99.472C54.1876 97.2681 54.1051 100.178 54.1041 100.204C54.0791 100.838 54.0782 101.685 54.0715 102.334C54.071 102.385 54.1115 103.987 53.9821 102.635C53.8182 100.923 53.8137 99.0665 53.2828 97.4149C53.1788 97.0911 53.1945 98.0911 53.1934 98.4312C53.1874 100.293 53.1934 102.155 53.1934 104.017C53.1934 104.806 53.1934 105.595 53.1934 106.383C53.1934 107.121 53.1934 104.909 53.1853 104.172C53.1653 102.352 53.2284 100.473 53.047 98.6589C52.8518 96.7064 53.047 102.583 53.047 104.546C53.047 104.732 53.0826 106.481 53.0308 104.513C52.9762 102.441 52.8919 100.37 52.7543 98.3011C52.7177 97.7505 52.6723 97.2003 52.6242 96.6505C52.5896 96.2553 52.798 95.2613 52.4616 95.4716C52.3723 95.5273 52.408 95.6759 52.3966 95.7805C52.3221 96.4634 52.2556 97.8574 52.2339 98.4312C52.1414 100.881 52.1473 103.333 52.0307 105.782C51.9432 107.619 51.9588 102.101 51.7949 100.269C51.7361 99.612 51.4989 97.6586 51.4696 98.3174C51.4034 99.8082 51.6316 101.348 51.803 102.822C51.8844 103.522 51.8903 105.023 52.1689 105.765C52.1984 105.844 52.1745 105.597 52.177 105.513C52.2013 104.689 52.2237 103.867 52.2421 103.041C52.2868 101.028 52.7104 95.0476 52.2177 97.0002C51.627 99.3408 51.8935 101.901 51.1769 104.204C51.0852 104.499 50.9416 103.625 50.9086 103.318C50.7465 101.81 50.5978 100.309 50.2825 98.8215C50.1248 98.0779 49.917 96.6621 49.4206 95.9919C49.1747 95.66 49.071 96.7536 49.0141 97.1628C48.7431 99.109 48.8225 101.084 48.5913 103.033C48.3907 104.724 48.64 99.6293 48.64 97.9271C48.64 97.5314 48.6359 97.1355 48.6238 96.74C48.6144 96.4354 48.8449 95.8671 48.5425 95.8293C48.4641 95.8195 48.521 95.9862 48.5181 96.0651C48.5054 96.4078 48.5099 97.6045 48.5099 97.7889C48.5099 99.1146 48.3501 103.067 48.5994 101.765C48.9145 100.119 48.9821 98.3764 48.884 96.7075C48.8543 96.2034 48.7187 94.7288 48.5994 95.2195C48.3354 96.3048 48.5192 97.7523 48.5425 98.8378C48.5724 100.233 48.6029 101.649 48.8027 103.033C48.8738 103.527 48.9732 103.962 49.1604 103.261C49.3764 102.453 49.6681 99.9689 49.6808 100.805C49.7059 102.463 49.6808 104.124 49.6808 105.782C49.6808 106.177 49.6414 107.362 49.6808 106.969C49.7571 106.206 49.7883 105.412 49.8109 104.651C49.8716 102.609 49.8356 100.567 49.6808 98.5288C49.6261 97.8082 49.6999 95.7737 49.323 96.3904C48.9857 96.9424 49.141 98.5963 49.1279 99.1305C49.0917 100.61 49.0954 102.09 49.0954 103.57C49.0954 104.035 49.0954 105.861 49.0954 104.237C49.0954 102.947 49.1026 101.656 49.0872 100.366C49.0787 99.6494 49.2043 97.5498 48.949 98.2198C48.6179 99.0891 48.819 100.726 48.8027 101.578C48.78 102.756 48.8481 104.024 48.6563 105.196C48.5629 105.767 48.3641 105.068 48.3392 104.96C48.0114 103.551 47.8732 102.089 47.6643 100.659C47.6166 100.332 47.1287 96.2966 47.209 98.9679C47.2746 101.151 47.5489 107.696 47.4773 105.513C47.3814 102.588 47.2319 99.645 46.7862 96.7481C46.4268 94.4122 46.776 101.475 46.7455 103.838C46.7424 104.084 46.7472 104.865 46.6723 105.229C46.6004 105.578 46.4184 104.557 46.3634 104.204C46.0431 102.152 45.4981 95.9643 45.4364 98.0409C45.3458 101.092 45.4602 104.163 45.5503 107.213C45.5581 107.478 45.5672 107.744 45.5747 108.01C45.5835 108.323 45.5922 108.558 45.5665 108.148C45.4679 106.569 45.3393 104.996 45.16 103.424C45.0033 102.05 44.7809 100.416 44.5746 99.0329C44.5195 98.6636 44.4645 98.2941 44.3957 97.9271C44.383 97.8597 44.3325 97.6634 44.3306 97.732C44.3234 97.9926 44.3581 98.2527 44.3794 98.5125C44.5728 100.869 45.1275 103.271 45.1275 105.635C45.1275 108.135 43.0294 95.9165 43.1029 98.415C43.185 101.209 43.9441 109.549 43.5013 106.79C43.116 104.389 43.0564 101.938 42.8101 99.5208C42.764 99.0681 42.5698 97.7176 42.6069 98.171C42.7024 99.3392 42.8854 100.503 43.0134 101.667C43.195 103.319 43.5826 105.234 43.3549 106.904C43.1349 108.517 42.6452 103.721 42.428 102.106C42.3141 101.26 42.1465 98.734 42.0133 99.5777C41.7486 101.254 41.9436 103.066 41.8913 104.757C41.8436 106.302 41.7434 105.99 41.5498 104.912C41.3688 103.903 41.2232 102.888 41.0457 101.879C40.8078 100.526 40.7454 100.538 40.8343 101.96C40.8919 102.882 40.9568 103.803 41.0132 104.725C41.0218 104.866 41.029 105.007 41.0376 105.147C41.0512 105.372 41.0466 105.226 41.0376 105.042C40.9777 103.815 40.785 102.607 40.6229 101.391C40.5272 100.673 40.7637 102.832 40.818 103.554C40.8925 104.543 40.9144 105.538 40.8994 106.53C40.8904 107.12 40.5689 106.542 40.4603 106.302C40.2013 105.731 40.0383 105.127 39.761 104.562C39.6478 104.331 39.4591 103.607 39.4358 103.863C39.3953 104.308 39.4556 104.789 39.5171 105.229C39.5596 105.532 39.6926 106.746 39.5821 105.725C39.5653 105.569 39.1851 104.141 39.1512 104.294C38.738 106.153 41.1017 100.969 41.5986 99.1305C41.9552 97.811 41.8851 100.11 41.8913 100.383C41.9252 101.871 41.8507 103.457 41.0457 104.757C40.7608 105.217 40.3254 105.64 39.948 106.017C39.8046 106.161 39.7667 106.197 39.6553 106.375C39.6478 106.387 39.8125 105.406 39.8911 105.196C40.5321 103.487 41.109 101.735 41.5986 99.9761C41.6403 99.8263 41.8331 98.9324 41.6311 99.5858C41.2806 100.72 41.2311 101.994 41.0782 103.163C40.9601 104.068 40.9141 105.018 40.6798 105.904C40.4783 106.665 40.4603 104.35 40.4603 104.188C40.4603 102.372 41.0457 96.9571 41.0457 98.7727C41.0457 99.4991 41.0457 100.225 41.0457 100.952C41.0457 101.095 41.0457 103.196 41.0457 102.237C41.0457 101.229 41.064 100.219 41.0457 99.2118C41.0379 98.7828 40.9077 99.0433 40.8668 99.2931C40.7494 100.011 40.7355 100.74 40.6798 101.464C40.6533 101.809 40.6066 103.076 40.6066 101.944C40.6066 101.057 40.93 98.492 40.5335 99.285C40.2935 99.7649 40.4649 100.61 40.4278 101.131C40.3625 102.044 40.2534 102.991 40.0212 103.879C39.904 104.327 39.9041 104.62 39.5496 104.903C38.8956 105.427 38.704 106.289 38.704 104.936C38.704 104.727 38.704 103.097 38.704 103.651C38.704 104.169 38.8504 104.635 38.8504 105.147C38.8504 105.704 38.8504 105.927 38.8504 105.229C38.8504 104.672 39.033 104.636 39.1431 104.196C39.4862 102.824 40.3896 101.655 40.6392 100.22C40.7566 99.5448 40.753 98.8876 40.753 98.2036" stroke="black"/>
<path d="M51.4371 98.3499C51.4959 100.173 51.8208 101.972 51.7217 103.806C51.5584 106.826 51.2373 97.7712 50.7866 94.7804C50.3932 92.1696 49.9214 100.004 49.8272 102.643C49.7708 104.223 50.1199 99.4913 50.1199 97.9109C50.1199 94.77 50.3616 104.243 49.7621 107.327C49.7493 107.392 49.7536 107.468 49.7133 107.522C49.6155 107.652 49.6819 107.197 49.6808 107.034C49.6733 105.942 49.6711 104.848 49.6971 103.757C49.7419 101.873 49.9842 100.04 50.25 98.1792C50.4651 96.6731 50.3869 101.219 50.4045 102.741C50.4103 103.247 50.2663 107.32 51.0143 104.749C51.6464 102.576 51.961 100.26 52.1526 98.0084C52.3176 96.0695 51.9789 101.901 51.7217 103.83C51.7101 103.917 51.4592 107.39 50.7704 106.692C49.2738 105.177 48.734 102.584 48.2823 100.594C48.0099 99.394 47.8382 98.1672 47.4936 96.9839C47.3853 96.6121 47.1611 95.7303 46.7699 96.4961C45.851 98.2951 45.6171 100.494 45.3226 102.464C45.193 103.331 45.2431 104.193 44.3306 104.359C43.7097 104.472 43.7302 106.194 43.672 106.587C43.5067 107.702 42.8617 111.02 43.1435 109.928C43.6999 107.772 44.376 105.649 44.9161 103.489C45.0259 103.049 45.1249 102.607 45.2169 102.163C45.2911 101.806 45.2646 100.768 45.4364 101.09C45.8153 101.8 45.6869 104.013 45.7292 104.676C45.8861 107.135 46.0002 109.596 46.0788 112.059C46.1114 113.08 45.8593 115.13 46.2333 116.189C46.4579 116.826 47.2033 115.246 47.6237 114.718C49.0434 112.934 50.5063 111.184 51.9737 109.441C52.644 108.644 53.933 106.468 55.2099 106.286C55.5791 106.233 55.2324 108.695 55.2099 108.871C55.1574 109.283 55.0728 110.492 54.9659 110.091C54.822 109.551 54.9301 108.804 54.8846 108.253C54.8127 107.382 54.6339 106.531 54.5106 105.668" stroke="black"/>
<path d="M78.6596 75.6645C78.8822 76.7778 80.2953 77.8428 80.855 78.7706C81.4653 79.7824 82.401 80.1759 83.2617 80.9334C84.3006 81.8476 84.5087 83.2647 85.0993 84.446" stroke="black"/>
<path d="M80.5622 77.7135C80.348 77.5231 79.7993 77.6875 79.6841 77.4859C79.4913 77.1485 79.5377 76.7708 79.5377 76.3963" stroke="black"/>
<path d="M81.7331 75.5182C81.7331 76.1284 81.8536 76.0175 82.3185 76.2499" stroke="black"/>
<path d="M82.3185 75.8109C82.0006 75.8109 81.7331 75.9057 81.7331 75.5182" stroke="black"/>
<path d="M82.0258 75.5182C81.6995 75.5182 81.5788 75.5022 81.4404 75.2255" stroke="black"/>
<path d="M81.7331 75.6645C81.7663 75.9301 82.0955 75.8178 82.1722 75.6645" stroke="black"/>
<path d="M81.4404 75.5182H82.0258" stroke="black"/>
<path d="M81.8795 75.3718C81.905 75.5764 82.304 75.7036 82.4649 75.8109" stroke="black"/>
<path d="M82.0258 75.5181C81.7829 75.5181 81.713 75.4515 81.5217 75.3149C81.421 75.2429 81.6185 75.4896 81.7412 75.51C82.0912 75.5683 82.2036 75.9677 82.6113 76.1036" stroke="black"/>
</svg>
